<svg xmlns="http://www.w3.org/2000/svg" width="18" height="18"><defs><linearGradient id="a" x1="23783.6" x2="24158.6" y1="-33989.28" y2="-34364.28" gradientTransform="matrix(.04 0 0 -.04 -854.88 -1220.44)"><stop offset="0" stop-color="#ccc"/><stop offset="1" stop-color="#b3b3b3"/></linearGradient><linearGradient id="b" x1="26590.5" x2="26857.06" y1="-38041.11" y2="-38307.67" gradientTransform="matrix(.03 0 0 -.03 -847.54 -1210.84)"><stop offset="0" stop-color="#c9473d"/><stop offset="1" stop-color="#9e3939"/></linearGradient></defs><path fill="#fff" d="M14.76 5.58v10.26H3.24V2.16h8.21z"/><path fill="#f9fafa" d="M14.76 5.58v10.26H3.24V2.16h8.21z"/><path fill="#fff" d="M11.23 2.34l.29 3.6 3.24-.36z"/><path fill="url(#a)" d="M11.61 1.79H2.7V16.2h12.6V5.51zm2.69 3.72h-2.67V2.82zm.28 10H3.42v-13h7.38v3.86h3.78z"/><path fill="url(#b)" d="M14.25 11.88a1.83 1.83 0 01-1.83 1.83H2.83A1.83 1.83 0 011 11.89v-2.3a1.83 1.83 0 011.83-1.83h9.59a1.83 1.83 0 011.83 1.83z"/><path fill="#fff" d="M4.87 11.16h-.65v1.27h-.66V9.05h1.31a1.05 1.05 0 110 2.11zm0-1.52h-.65v.93h.62a.46.46 0 100-.93zm3.78 2.47a1.23 1.23 0 01-.89.32H6.54V9.05h1.22a1.23 1.23 0 01.89.32A1.7 1.7 0 019 10.73a1.76 1.76 0 01-.35 1.38zm-.46-2.26a.59.59 0 00-.49-.21h-.5v2.2h.5a.59.59 0 00.49-.21c.12-.15.14-.39.14-.91s-.01-.72-.14-.87zm2.14-.21v.83h1.33v.59h-1.33v1.37h-.66V9.05h2.23v.59z"/></svg>