<svg xmlns="http://www.w3.org/2000/svg" width="18" height="18"><defs><linearGradient id="a" x1="23783.6" x2="24158.6" y1="-33989.28" y2="-34364.28" gradientTransform="matrix(.04 0 0 -.04 -854.88 -1220.44)"><stop offset="0" stop-color="#ccc"/><stop offset="1" stop-color="#b3b3b3"/></linearGradient><linearGradient id="b" x1="26590.5" x2="26857.06" y1="-38041.11" y2="-38307.67" gradientTransform="matrix(.03 0 0 -.03 -847.54 -1210.84)"><stop offset="0" stop-color="#196b99"/><stop offset="1" stop-color="#0d5c7f"/></linearGradient></defs><path fill="#fff" d="M14.76 5.58v10.26H3.24V2.16h8.21z"/><path fill="#f9fafa" d="M14.76 5.58v10.26H3.24V2.16h8.21z"/><path fill="#fff" d="M11.23 2.34l.29 3.6 3.24-.36z"/><path fill="url(#a)" d="M11.61 1.79H2.7V16.2h12.6V5.51zm2.69 3.72h-2.67V2.82zm.28 10H3.42v-13h7.38v3.86h3.78z"/><path fill="url(#b)" d="M14.25 11.88a1.83 1.83 0 01-1.83 1.83H2.83A1.83 1.83 0 011 11.89v-2.3a1.83 1.83 0 011.83-1.83h9.59a1.83 1.83 0 011.83 1.83z"/><path fill="#fff" d="M4.45 12.43H3V9.05h1.39a.92.92 0 011 .95.78.78 0 01-.42.7.79.79 0 01.47.76.93.93 0 01-.99.97zm-.11-2.79H3.7v.78h.65a.39.39 0 100-.78zm0 1.37H3.7v.83h.69a.42.42 0 100-.83zm4.22 1.42v-2l-.65 1.28h-.44l-.65-1.28v2h-.66V9.05h.65l.88 1.83.88-1.83h.65v3.38zm2.76-1.27h-.65v1.27H10V9.05h1.31a1.05 1.05 0 110 2.11zm0-1.52h-.62v.93h.62a.46.46 0 100-.93z"/></svg>