<svg xmlns="http://www.w3.org/2000/svg" width="18" height="18"><defs><linearGradient id="a" x1="23783.6" x2="24158.6" y1="-33989.28" y2="-34364.28" gradientTransform="matrix(.04 0 0 -.04 -854.88 -1220.44)"><stop offset="0" stop-color="#ccc"/><stop offset="1" stop-color="#b3b3b3"/></linearGradient><linearGradient id="b" x1="26590.5" x2="26857.06" y1="-38041.11" y2="-38307.67" gradientTransform="matrix(.03 0 0 -.03 -847.54 -1210.84)"><stop offset="0" stop-color="#c9473d"/><stop offset="1" stop-color="#9e3939"/></linearGradient></defs><path fill="#fff" d="M14.76 5.58v10.26H3.24V2.16h8.21z"/><path fill="#f9fafa" d="M14.76 5.58v10.26H3.24V2.16h8.21z"/><path fill="#fff" d="M11.23 2.34l.29 3.6 3.24-.36z"/><path fill="url(#a)" d="M11.61 1.79H2.7V16.2h12.6V5.51zm2.69 3.72h-2.67V2.82zm.28 10H3.42v-13h7.38v3.86h3.78z"/><path fill="url(#b)" d="M14.25 11.88a1.83 1.83 0 01-1.83 1.83H2.83A1.83 1.83 0 011 11.89v-2.3a1.83 1.83 0 011.83-1.83h9.59a1.83 1.83 0 011.83 1.83z"/><path fill="#fff" d="M3.43 11.16h-.65v1.27h-.66V9.05h1.31a1.05 1.05 0 110 2.11zm0-1.52h-.65v.93h.62a.46.46 0 100-.93zm3.47 2.79V11H5.76v1.41H5.1V9.05h.66v1.38H6.9V9.05h.66v3.38zm2.76-1.27H9v1.27h-.65V9.05h1.31a1.05 1.05 0 110 2.11zm0-1.52H9v.93h.62a.46.46 0 100-.93zm2.56 2.82a1 1 0 01-1.08-1h.62a.46.46 0 00.92 0 .43.43 0 00-.48-.46h-.09v-.54h.09a.39.39 0 00.43-.42.42.42 0 10-.83 0h-.62a1 1 0 011-1 1 1 0 011 1 .72.72 0 01-.39.69.8.8 0 01.44.77 1 1 0 01-1.01.96z"/></svg>