<svg xmlns="http://www.w3.org/2000/svg" width="18" height="18"><defs><linearGradient id="a" x1="23783.6" x2="24158.6" y1="-33989.28" y2="-34364.28" gradientTransform="matrix(.04 0 0 -.04 -854.88 -1220.44)"><stop offset="0" stop-color="#ccc"/><stop offset="1" stop-color="#b3b3b3"/></linearGradient><linearGradient id="b" x1="26590.5" x2="26857.06" y1="-38041.11" y2="-38307.67" gradientTransform="matrix(.03 0 0 -.03 -847.54 -1210.84)"><stop offset="0" stop-color="#c9473d"/><stop offset="1" stop-color="#9e3939"/></linearGradient></defs><path fill="#fff" d="M14.76 5.58v10.26H3.24V2.16h8.21z"/><path fill="#f9fafa" d="M14.76 5.58v10.26H3.24V2.16h8.21z"/><path fill="#fff" d="M11.23 2.34l.29 3.6 3.24-.36z"/><path fill="url(#a)" d="M11.61 1.79H2.7V16.2h12.6V5.51zm2.69 3.72h-2.67V2.82zm.28 10H3.42v-13h7.38v3.86h3.78z"/><path fill="url(#b)" d="M14.25 11.88a1.83 1.83 0 01-1.83 1.83H2.83A1.83 1.83 0 011 11.89v-2.3a1.83 1.83 0 011.83-1.83h9.59a1.83 1.83 0 011.83 1.83z"/><path fill="#fff" d="M5.56 12.11a1.23 1.23 0 01-.89.32H3.45V9.05h1.22a1.23 1.23 0 01.89.32 1.7 1.7 0 01.34 1.35 1.76 1.76 0 01-.34 1.39zM5.1 9.85a.59.59 0 00-.49-.21h-.5v2.2h.5a.59.59 0 00.49-.21c.12-.15.14-.39.14-.91s-.02-.72-.14-.87zm3.53 2.24a1.31 1.31 0 01-1.83 0c-.34-.34-.33-.76-.33-1.35s0-1 .33-1.35a1.31 1.31 0 011.83 0c.34.34.34.76.34 1.35s.03 1.01-.34 1.35zm-.49-2.3a.55.55 0 00-.42-.18.56.56 0 00-.43.18c-.13.14-.16.3-.16.95s0 .81.16.95a.56.56 0 00.43.18.55.55 0 00.42-.18c.13-.14.17-.3.17-.95s-.05-.8-.17-.95zm2.63 2.67a1.24 1.24 0 01-.91-.37 1 1 0 01-.28-.51 4.59 4.59 0 01-.06-.84 4.59 4.59 0 01.06-.84 1 1 0 01.28-.51 1.24 1.24 0 01.91-.39A1.19 1.19 0 0112 10.09h-.67a.56.56 0 00-.57-.48.52.52 0 00-.42.18c-.14.15-.17.3-.17 1s0 .81.17 1a.52.52 0 00.42.17.56.56 0 00.57-.48H12a1.19 1.19 0 01-1.23.98z"/></svg>